<mxfile host="app.diagrams.net" modified="2024-05-19T03:54:04.086Z" agent="Mozilla/5.0 (Windows NT 10.0; Win64; x64) AppleWebKit/537.36 (KHTML, like Gecko) Chrome/125.0.0.0 Safari/537.36" etag="nyEkTKeRDTWMG8p5Ntl6" version="24.4.4" type="device">
  <diagram id="4cOmoD7kVX458PeyxUBy" name="Page-1">
    <mxGraphModel dx="1434" dy="879" grid="1" gridSize="10" guides="1" tooltips="1" connect="1" arrows="1" fold="1" page="1" pageScale="1" pageWidth="1100" pageHeight="850" math="0" shadow="0">
      <root>
        <mxCell id="0" />
        <mxCell id="1" parent="0" />
        <mxCell id="rYl-7uUuEtlIB3AwXQG3-11" style="edgeStyle=orthogonalEdgeStyle;rounded=0;orthogonalLoop=1;jettySize=auto;html=1;exitX=0;exitY=1;exitDx=0;exitDy=0;entryX=0.5;entryY=1;entryDx=0;entryDy=0;" parent="1" source="rYl-7uUuEtlIB3AwXQG3-1" target="rYl-7uUuEtlIB3AwXQG3-2" edge="1">
          <mxGeometry relative="1" as="geometry">
            <Array as="points">
              <mxPoint x="506" y="475" />
              <mxPoint x="130" y="475" />
            </Array>
          </mxGeometry>
        </mxCell>
        <mxCell id="rYl-7uUuEtlIB3AwXQG3-12" value="memberikan kwitansi" style="edgeLabel;html=1;align=center;verticalAlign=middle;resizable=0;points=[];" parent="rYl-7uUuEtlIB3AwXQG3-11" vertex="1" connectable="0">
          <mxGeometry x="-0.0906" relative="1" as="geometry">
            <mxPoint as="offset" />
          </mxGeometry>
        </mxCell>
        <mxCell id="rYl-7uUuEtlIB3AwXQG3-21" style="edgeStyle=orthogonalEdgeStyle;rounded=0;orthogonalLoop=1;jettySize=auto;html=1;exitX=1;exitY=0;exitDx=0;exitDy=0;entryX=1;entryY=0.5;entryDx=0;entryDy=0;" parent="1" source="rYl-7uUuEtlIB3AwXQG3-1" target="rYl-7uUuEtlIB3AwXQG3-13" edge="1">
          <mxGeometry relative="1" as="geometry">
            <Array as="points">
              <mxPoint x="670" y="381" />
              <mxPoint x="670" y="110" />
            </Array>
          </mxGeometry>
        </mxCell>
        <mxCell id="rYl-7uUuEtlIB3AwXQG3-22" value="laporan pembayaran" style="edgeLabel;html=1;align=center;verticalAlign=middle;resizable=0;points=[];" parent="rYl-7uUuEtlIB3AwXQG3-21" vertex="1" connectable="0">
          <mxGeometry x="0.0408" y="-1" relative="1" as="geometry">
            <mxPoint as="offset" />
          </mxGeometry>
        </mxCell>
        <mxCell id="rYl-7uUuEtlIB3AwXQG3-23" style="edgeStyle=orthogonalEdgeStyle;rounded=0;orthogonalLoop=1;jettySize=auto;html=1;exitX=1;exitY=0;exitDx=0;exitDy=0;entryX=1;entryY=0.5;entryDx=0;entryDy=0;" parent="1" source="rYl-7uUuEtlIB3AwXQG3-1" target="rYl-7uUuEtlIB3AwXQG3-13" edge="1">
          <mxGeometry relative="1" as="geometry">
            <Array as="points">
              <mxPoint x="730" y="381" />
              <mxPoint x="730" y="110" />
            </Array>
          </mxGeometry>
        </mxCell>
        <mxCell id="rYl-7uUuEtlIB3AwXQG3-24" value="laporan stock motor" style="edgeLabel;html=1;align=center;verticalAlign=middle;resizable=0;points=[];" parent="rYl-7uUuEtlIB3AwXQG3-23" vertex="1" connectable="0">
          <mxGeometry x="0.191" y="-1" relative="1" as="geometry">
            <mxPoint y="17" as="offset" />
          </mxGeometry>
        </mxCell>
        <mxCell id="RgltOJOQ-o09lIWsevZv-6" style="edgeStyle=orthogonalEdgeStyle;rounded=0;orthogonalLoop=1;jettySize=auto;html=1;exitX=1;exitY=1;exitDx=0;exitDy=0;entryX=0.5;entryY=1;entryDx=0;entryDy=0;" edge="1" parent="1" source="rYl-7uUuEtlIB3AwXQG3-1" target="RgltOJOQ-o09lIWsevZv-1">
          <mxGeometry relative="1" as="geometry">
            <Array as="points">
              <mxPoint x="980" y="470" />
            </Array>
          </mxGeometry>
        </mxCell>
        <mxCell id="RgltOJOQ-o09lIWsevZv-7" value="laporan penjualan" style="edgeLabel;html=1;align=center;verticalAlign=middle;resizable=0;points=[];" vertex="1" connectable="0" parent="RgltOJOQ-o09lIWsevZv-6">
          <mxGeometry x="-0.1674" y="-4" relative="1" as="geometry">
            <mxPoint y="-4" as="offset" />
          </mxGeometry>
        </mxCell>
        <mxCell id="RgltOJOQ-o09lIWsevZv-8" style="edgeStyle=orthogonalEdgeStyle;rounded=0;orthogonalLoop=1;jettySize=auto;html=1;exitX=1;exitY=1;exitDx=0;exitDy=0;entryX=0.5;entryY=1;entryDx=0;entryDy=0;" edge="1" parent="1" source="rYl-7uUuEtlIB3AwXQG3-1" target="RgltOJOQ-o09lIWsevZv-1">
          <mxGeometry relative="1" as="geometry">
            <Array as="points">
              <mxPoint x="595" y="490" />
              <mxPoint x="980" y="490" />
            </Array>
          </mxGeometry>
        </mxCell>
        <mxCell id="RgltOJOQ-o09lIWsevZv-9" value="laporan barang" style="edgeLabel;html=1;align=center;verticalAlign=middle;resizable=0;points=[];" vertex="1" connectable="0" parent="RgltOJOQ-o09lIWsevZv-8">
          <mxGeometry x="-0.1974" y="-3" relative="1" as="geometry">
            <mxPoint as="offset" />
          </mxGeometry>
        </mxCell>
        <mxCell id="RgltOJOQ-o09lIWsevZv-10" style="edgeStyle=orthogonalEdgeStyle;rounded=0;orthogonalLoop=1;jettySize=auto;html=1;exitX=1;exitY=1;exitDx=0;exitDy=0;entryX=0.5;entryY=1;entryDx=0;entryDy=0;" edge="1" parent="1" source="rYl-7uUuEtlIB3AwXQG3-1" target="RgltOJOQ-o09lIWsevZv-1">
          <mxGeometry relative="1" as="geometry">
            <Array as="points">
              <mxPoint x="595" y="520" />
              <mxPoint x="980" y="520" />
            </Array>
          </mxGeometry>
        </mxCell>
        <mxCell id="RgltOJOQ-o09lIWsevZv-11" value="laporan kwitansi" style="edgeLabel;html=1;align=center;verticalAlign=middle;resizable=0;points=[];" vertex="1" connectable="0" parent="RgltOJOQ-o09lIWsevZv-10">
          <mxGeometry x="-0.1458" y="-3" relative="1" as="geometry">
            <mxPoint y="-5" as="offset" />
          </mxGeometry>
        </mxCell>
        <mxCell id="RgltOJOQ-o09lIWsevZv-13" style="edgeStyle=orthogonalEdgeStyle;rounded=0;orthogonalLoop=1;jettySize=auto;html=1;exitX=0;exitY=0;exitDx=0;exitDy=0;entryX=0.5;entryY=0;entryDx=0;entryDy=0;" edge="1" parent="1" source="rYl-7uUuEtlIB3AwXQG3-1" target="rYl-7uUuEtlIB3AwXQG3-2">
          <mxGeometry relative="1" as="geometry">
            <Array as="points">
              <mxPoint x="339" y="381" />
              <mxPoint x="339" y="380" />
              <mxPoint x="130" y="380" />
            </Array>
          </mxGeometry>
        </mxCell>
        <mxCell id="RgltOJOQ-o09lIWsevZv-14" value="memberikan notif tagihan bulanan" style="edgeLabel;html=1;align=center;verticalAlign=middle;resizable=0;points=[];" vertex="1" connectable="0" parent="RgltOJOQ-o09lIWsevZv-13">
          <mxGeometry x="-0.0392" y="3" relative="1" as="geometry">
            <mxPoint as="offset" />
          </mxGeometry>
        </mxCell>
        <mxCell id="RgltOJOQ-o09lIWsevZv-30" style="edgeStyle=orthogonalEdgeStyle;rounded=0;orthogonalLoop=1;jettySize=auto;html=1;exitX=0.5;exitY=1;exitDx=0;exitDy=0;entryX=0.25;entryY=0;entryDx=0;entryDy=0;" edge="1" parent="1" source="rYl-7uUuEtlIB3AwXQG3-1" target="RgltOJOQ-o09lIWsevZv-15">
          <mxGeometry relative="1" as="geometry" />
        </mxCell>
        <mxCell id="RgltOJOQ-o09lIWsevZv-31" value="tanya" style="edgeLabel;html=1;align=center;verticalAlign=middle;resizable=0;points=[];" vertex="1" connectable="0" parent="RgltOJOQ-o09lIWsevZv-30">
          <mxGeometry x="0.465" relative="1" as="geometry">
            <mxPoint as="offset" />
          </mxGeometry>
        </mxCell>
        <mxCell id="rYl-7uUuEtlIB3AwXQG3-1" value="sistem informasi&lt;div&gt;kredit motor&lt;/div&gt;" style="ellipse;whiteSpace=wrap;html=1;aspect=fixed;" parent="1" vertex="1">
          <mxGeometry x="488" y="363" width="125" height="125" as="geometry" />
        </mxCell>
        <mxCell id="rYl-7uUuEtlIB3AwXQG3-3" style="edgeStyle=orthogonalEdgeStyle;rounded=0;orthogonalLoop=1;jettySize=auto;html=1;exitX=1;exitY=0.5;exitDx=0;exitDy=0;entryX=0;entryY=0.5;entryDx=0;entryDy=0;" parent="1" source="rYl-7uUuEtlIB3AwXQG3-2" target="rYl-7uUuEtlIB3AwXQG3-1" edge="1">
          <mxGeometry relative="1" as="geometry" />
        </mxCell>
        <mxCell id="rYl-7uUuEtlIB3AwXQG3-4" value="input data" style="edgeLabel;html=1;align=center;verticalAlign=middle;resizable=0;points=[];" parent="rYl-7uUuEtlIB3AwXQG3-3" vertex="1" connectable="0">
          <mxGeometry x="-0.1491" y="-4" relative="1" as="geometry">
            <mxPoint as="offset" />
          </mxGeometry>
        </mxCell>
        <mxCell id="rYl-7uUuEtlIB3AwXQG3-2" value="customer" style="rounded=0;whiteSpace=wrap;html=1;" parent="1" vertex="1">
          <mxGeometry x="70" y="395" width="120" height="60" as="geometry" />
        </mxCell>
        <mxCell id="rYl-7uUuEtlIB3AwXQG3-7" style="edgeStyle=orthogonalEdgeStyle;rounded=0;orthogonalLoop=1;jettySize=auto;html=1;exitX=1;exitY=0.25;exitDx=0;exitDy=0;entryX=0.016;entryY=0.376;entryDx=0;entryDy=0;entryPerimeter=0;" parent="1" source="rYl-7uUuEtlIB3AwXQG3-2" target="rYl-7uUuEtlIB3AwXQG3-1" edge="1">
          <mxGeometry relative="1" as="geometry" />
        </mxCell>
        <mxCell id="rYl-7uUuEtlIB3AwXQG3-8" value="memilih barang/pesanan" style="edgeLabel;html=1;align=center;verticalAlign=middle;resizable=0;points=[];" parent="rYl-7uUuEtlIB3AwXQG3-7" vertex="1" connectable="0">
          <mxGeometry x="-0.1867" relative="1" as="geometry">
            <mxPoint as="offset" />
          </mxGeometry>
        </mxCell>
        <mxCell id="rYl-7uUuEtlIB3AwXQG3-9" style="edgeStyle=orthogonalEdgeStyle;rounded=0;orthogonalLoop=1;jettySize=auto;html=1;exitX=1;exitY=0.75;exitDx=0;exitDy=0;entryX=0.024;entryY=0.608;entryDx=0;entryDy=0;entryPerimeter=0;" parent="1" source="rYl-7uUuEtlIB3AwXQG3-2" target="rYl-7uUuEtlIB3AwXQG3-1" edge="1">
          <mxGeometry relative="1" as="geometry" />
        </mxCell>
        <mxCell id="rYl-7uUuEtlIB3AwXQG3-10" value="melakukan pembayaran DP/bulanan" style="edgeLabel;html=1;align=center;verticalAlign=middle;resizable=0;points=[];" parent="rYl-7uUuEtlIB3AwXQG3-9" vertex="1" connectable="0">
          <mxGeometry x="-0.1921" y="-4" relative="1" as="geometry">
            <mxPoint as="offset" />
          </mxGeometry>
        </mxCell>
        <mxCell id="rYl-7uUuEtlIB3AwXQG3-14" style="edgeStyle=orthogonalEdgeStyle;rounded=0;orthogonalLoop=1;jettySize=auto;html=1;" parent="1" source="rYl-7uUuEtlIB3AwXQG3-13" target="rYl-7uUuEtlIB3AwXQG3-1" edge="1">
          <mxGeometry relative="1" as="geometry" />
        </mxCell>
        <mxCell id="rYl-7uUuEtlIB3AwXQG3-15" value="memasukan&lt;div&gt;data ketersediaan&lt;/div&gt;&lt;div&gt;motor&lt;/div&gt;" style="edgeLabel;html=1;align=center;verticalAlign=middle;resizable=0;points=[];" parent="rYl-7uUuEtlIB3AwXQG3-14" vertex="1" connectable="0">
          <mxGeometry x="-0.2036" y="-1" relative="1" as="geometry">
            <mxPoint x="1" y="-19" as="offset" />
          </mxGeometry>
        </mxCell>
        <mxCell id="rYl-7uUuEtlIB3AwXQG3-13" value="bagian penjualan" style="rounded=0;whiteSpace=wrap;html=1;" parent="1" vertex="1">
          <mxGeometry x="490" y="80" width="120" height="60" as="geometry" />
        </mxCell>
        <mxCell id="rYl-7uUuEtlIB3AwXQG3-16" style="edgeStyle=orthogonalEdgeStyle;rounded=0;orthogonalLoop=1;jettySize=auto;html=1;exitX=0.75;exitY=1;exitDx=0;exitDy=0;entryX=0.736;entryY=0.056;entryDx=0;entryDy=0;entryPerimeter=0;" parent="1" source="rYl-7uUuEtlIB3AwXQG3-13" target="rYl-7uUuEtlIB3AwXQG3-1" edge="1">
          <mxGeometry relative="1" as="geometry">
            <Array as="points">
              <mxPoint x="610" y="140" />
              <mxPoint x="610" y="370" />
            </Array>
          </mxGeometry>
        </mxCell>
        <mxCell id="rYl-7uUuEtlIB3AwXQG3-17" value="membuat laporan&lt;div&gt;penjualan&lt;/div&gt;" style="edgeLabel;html=1;align=center;verticalAlign=middle;resizable=0;points=[];" parent="rYl-7uUuEtlIB3AwXQG3-16" vertex="1" connectable="0">
          <mxGeometry x="-0.2138" y="1" relative="1" as="geometry">
            <mxPoint y="-48" as="offset" />
          </mxGeometry>
        </mxCell>
        <mxCell id="rYl-7uUuEtlIB3AwXQG3-18" style="edgeStyle=orthogonalEdgeStyle;rounded=0;orthogonalLoop=1;jettySize=auto;html=1;exitX=0.25;exitY=1;exitDx=0;exitDy=0;entryX=0.256;entryY=0.056;entryDx=0;entryDy=0;entryPerimeter=0;" parent="1" source="rYl-7uUuEtlIB3AwXQG3-13" target="rYl-7uUuEtlIB3AwXQG3-1" edge="1">
          <mxGeometry relative="1" as="geometry">
            <Array as="points">
              <mxPoint x="490" y="140" />
              <mxPoint x="490" y="370" />
            </Array>
          </mxGeometry>
        </mxCell>
        <mxCell id="rYl-7uUuEtlIB3AwXQG3-20" value="input data&lt;div&gt;kredit motor&lt;/div&gt;" style="edgeLabel;html=1;align=center;verticalAlign=middle;resizable=0;points=[];" parent="rYl-7uUuEtlIB3AwXQG3-18" vertex="1" connectable="0">
          <mxGeometry x="-0.2432" y="-1" relative="1" as="geometry">
            <mxPoint x="1" y="20" as="offset" />
          </mxGeometry>
        </mxCell>
        <mxCell id="RgltOJOQ-o09lIWsevZv-2" style="edgeStyle=orthogonalEdgeStyle;rounded=0;orthogonalLoop=1;jettySize=auto;html=1;entryX=1;entryY=0.5;entryDx=0;entryDy=0;" edge="1" parent="1" source="RgltOJOQ-o09lIWsevZv-1" target="rYl-7uUuEtlIB3AwXQG3-1">
          <mxGeometry relative="1" as="geometry" />
        </mxCell>
        <mxCell id="RgltOJOQ-o09lIWsevZv-3" value="mmebuat kebijakan" style="edgeLabel;html=1;align=center;verticalAlign=middle;resizable=0;points=[];" vertex="1" connectable="0" parent="RgltOJOQ-o09lIWsevZv-2">
          <mxGeometry x="-0.1531" y="1" relative="1" as="geometry">
            <mxPoint as="offset" />
          </mxGeometry>
        </mxCell>
        <mxCell id="RgltOJOQ-o09lIWsevZv-1" value="pimpinan" style="rounded=0;whiteSpace=wrap;html=1;" vertex="1" parent="1">
          <mxGeometry x="920" y="395.5" width="120" height="60" as="geometry" />
        </mxCell>
        <mxCell id="RgltOJOQ-o09lIWsevZv-28" style="edgeStyle=orthogonalEdgeStyle;rounded=0;orthogonalLoop=1;jettySize=auto;html=1;exitX=0.75;exitY=0;exitDx=0;exitDy=0;entryX=0.5;entryY=1;entryDx=0;entryDy=0;" edge="1" parent="1" source="RgltOJOQ-o09lIWsevZv-15" target="rYl-7uUuEtlIB3AwXQG3-1">
          <mxGeometry relative="1" as="geometry" />
        </mxCell>
        <mxCell id="RgltOJOQ-o09lIWsevZv-29" value="jawab" style="edgeLabel;html=1;align=center;verticalAlign=middle;resizable=0;points=[];" vertex="1" connectable="0" parent="RgltOJOQ-o09lIWsevZv-28">
          <mxGeometry x="-0.4733" relative="1" as="geometry">
            <mxPoint x="1" as="offset" />
          </mxGeometry>
        </mxCell>
        <mxCell id="RgltOJOQ-o09lIWsevZv-15" value="Gudang" style="rounded=0;whiteSpace=wrap;html=1;" vertex="1" parent="1">
          <mxGeometry x="490.5" y="701" width="120" height="60" as="geometry" />
        </mxCell>
      </root>
    </mxGraphModel>
  </diagram>
</mxfile>
